<svg width="960" height="521" viewBox="0 0 960 521" fill="none" xmlns="http://www.w3.org/2000/svg">
<rect width="960" height="520" fill="url(#paint0_linear_57_2)"/>
<line y1="-0.5" x2="201.268" y2="-0.5" transform="matrix(0.773756 -0.633484 0.684852 0.728682 314.705 137.5)" stroke="black"/>
<line y1="-0.5" x2="201.268" y2="-0.5" transform="matrix(-0.773756 -0.633484 -0.684852 0.728682 626.17 137.5)" stroke="black"/>
<line x1="291.482" y1="93.65" x2="653.501" y2="93.65" stroke="black"/>
<line y1="-0.5" x2="90.12" y2="-0.5" transform="matrix(-0.424434 0.905459 -0.925793 -0.378032 294.214 92.875)" stroke="black"/>
<line y1="-0.5" x2="94.827" y2="-0.5" transform="matrix(0.46099 0.887405 -0.911058 0.412277 653.491 94.15)" stroke="black"/>
<line x1="176.732" y1="467.225" x2="777.804" y2="467.225" stroke="black"/>
<line x1="204.054" y1="138.275" x2="750.482" y2="138.275" stroke="black"/>
<line y1="-1" x2="328.701" y2="-1" transform="matrix(0.0789633 -0.996877 0.997628 0.0688376 178.098 466.45)" stroke="black" stroke-width="2"/>
<line y1="-1" x2="329.05" y2="-1" transform="matrix(-0.0913343 -0.99582 0.996823 -0.0796425 780.536 466.45)" stroke="black" stroke-width="2"/>
<rect x="398.036" y="467.725" width="159.83" height="31.875" fill="#661D1D"/>
<rect x="391.205" y="488.125" width="173.491" height="31.875" fill="#861D1D"/>
<line x1="397.536" y1="466.45" x2="397.536" y2="384.85" stroke="black"/>
<line x1="557.366" y1="466.45" x2="557.366" y2="384.85" stroke="black"/>
<line y1="-0.5" x2="82.92" y2="-0.5" transform="matrix(-0.0329491 -0.999457 0.999588 -0.0287061 697.205 467.725)" stroke="black"/>
<line y1="-0.5" x2="81.8854" y2="-0.5" transform="matrix(0.0834136 -0.996515 0.997352 0.0727236 251.866 466.45)" stroke="black"/>
<line x1="184.929" y1="384.35" x2="398.036" y2="384.35" stroke="black"/>
<line x1="557.866" y1="384.35" x2="770.973" y2="384.35" stroke="black"/>
<line y1="-0.5" x2="188.824" y2="-0.5" transform="matrix(0.0361732 -0.999346 0.999503 0.0315159 404.866 453.7)" stroke="black"/>
<line y1="-0.5" x2="188.878" y2="-0.5" transform="matrix(-0.0433954 -0.999058 0.999285 -0.0378108 551.036 453.7)" stroke="black"/>
<line x1="411.696" y1="264.5" x2="542.839" y2="264.5" stroke="black"/>
<ellipse cx="430.821" cy="370.825" rx="15.0268" ry="11.475" fill="#FFD631"/>
<path d="M430.821 359.85C434.871 359.85 438.519 361.104 441.143 363.109C443.767 365.113 445.348 367.845 445.348 370.825C445.348 373.805 443.768 376.537 441.143 378.541C438.519 380.546 434.871 381.8 430.821 381.8C426.772 381.8 423.124 380.546 420.5 378.541C417.876 376.537 416.295 373.805 416.295 370.825C416.295 367.845 417.876 365.113 420.5 363.109C423.124 361.105 426.772 359.85 430.821 359.85Z" stroke="black" stroke-opacity="0.17"/>
<ellipse cx="475.902" cy="306.437" rx="5.46429" ry="4.4625" fill="#D9D9D9"/>
<line y1="-0.5" x2="287.706" y2="-0.5" transform="matrix(-0.0759703 -0.99711 0.997805 -0.0662247 719.062 465.175)" stroke="black"/>
<line y1="-0.5" x2="287.343" y2="-0.5" transform="matrix(0.0570498 -0.998371 0.998763 0.0497162 239.571 465.175)" stroke="black"/>
<line y1="-0.5" x2="63.0764" y2="-0.5" transform="matrix(-0.952926 -0.303204 0.343089 -0.939303 243.67 403.975)" stroke="black"/>
<line y1="-0.5" x2="60.7009" y2="-0.5" transform="matrix(-0.967713 0.252055 -0.286472 -0.958089 770.973 384.85)" stroke="black"/>
<line y1="-0.5" x2="69.3362" y2="-0.5" transform="matrix(-0.118213 0.992988 -0.994666 -0.103151 212.25 396.325)" stroke="black"/>
<line y1="-0.5" x2="75.3365" y2="-0.5" transform="matrix(0.0543988 0.998519 -0.998876 0.0474043 742.286 392.5)" stroke="black"/>
<line y1="-0.5" x2="66.0255" y2="-0.5" transform="matrix(0.786223 0.617943 -0.66989 0.742461 204.054 137.5)" stroke="black"/>
<line y1="-0.5" x2="63.0932" y2="-0.5" transform="matrix(-0.779459 0.626454 -0.678098 -0.734971 746.384 138.775)" stroke="black"/>
<line x1="255.964" y1="177.8" x2="697.205" y2="177.8" stroke="black"/>
<line x1="258.696" y1="377.975" x2="391.205" y2="377.975" stroke="black"/>
<line y1="-0.5" x2="112.731" y2="-0.5" transform="matrix(0.0969438 -0.99529 0.99642 0.0845447 261.429 377.2)" stroke="black"/>
<line y1="-0.5" x2="110.959" y2="-0.5" transform="matrix(0.0246231 -0.999697 0.99977 0.021451 388.473 375.925)" stroke="black"/>
<line y1="-0.5" x2="118.855" y2="-0.5" transform="matrix(-0.999942 -0.0107274 0.0123143 -0.999924 391.205 266.275)" stroke="black"/>
<line y1="-0.5" x2="132.509" y2="-0.5" transform="matrix(-1 0 0 1 697.205 375.925)" stroke="black"/>
<line y1="-0.5" x2="112.731" y2="-0.5" transform="matrix(-0.0969438 -0.99529 -0.99642 0.0845447 694.473 374.65)" stroke="black"/>
<line y1="-0.5" x2="110.959" y2="-0.5" transform="matrix(-0.0246231 -0.999697 -0.99977 0.021451 567.429 373.375)" stroke="black"/>
<line y1="-0.5" x2="118.855" y2="-0.5" transform="matrix(0.999942 -0.0107274 -0.0123143 -0.999924 564.696 263.725)" stroke="black"/>
<line y1="-0.5" x2="53.9839" y2="-0.5" transform="matrix(0.126526 0.991963 -0.993884 0.110432 779.17 466.45)" stroke="black"/>
<line y1="-0.5" x2="56.1665" y2="-0.5" transform="matrix(-0.0486436 0.998816 -0.999101 -0.0423861 176.732 463.9)" stroke="black"/>
<defs>
<linearGradient id="paint0_linear_57_2" x1="480" y1="520" x2="480" y2="0" gradientUnits="userSpaceOnUse">
<stop offset="0.596154" stop-color="#F2FEFF"/>
<stop offset="1" stop-color="#999999"/>
</linearGradient>
</defs>
</svg>
