<svg width="960" height="520" viewBox="0 0 960 520" fill="none" xmlns="http://www.w3.org/2000/svg">
<g clip-path="url(#clip0_42_3)">
<rect width="960" height="520" fill="url(#paint0_linear_42_3)"/>
<path d="M870.5 70L989.578 297.25H751.422L870.5 70Z" fill="url(#paint1_linear_42_3)"/>
<path d="M922 205L982.622 295H861.378L922 205Z" fill="url(#paint2_linear_42_3)"/>
<path d="M862 167L958.129 298.25H765.871L862 167Z" fill="url(#paint3_linear_42_3)"/>
<path d="M55 90L164.985 291H-54.9852L55 90Z" fill="url(#paint4_linear_42_3)"/>
<path d="M21.8076 68L155.009 298.25H-111.394L21.8076 68Z" fill="url(#paint5_linear_42_3)"/>
</g>
<defs>
<linearGradient id="paint0_linear_42_3" x1="480" y1="520" x2="480" y2="0" gradientUnits="userSpaceOnUse">
<stop stop-color="#E4FEFF"/>
<stop offset="1" stop-color="#033F3C"/>
</linearGradient>
<linearGradient id="paint1_linear_42_3" x1="870.5" y1="70" x2="870.5" y2="373" gradientUnits="userSpaceOnUse">
<stop stop-color="#C2FFF5"/>
<stop offset="1" stop-color="#00B481"/>
</linearGradient>
<linearGradient id="paint2_linear_42_3" x1="922" y1="205" x2="922" y2="325" gradientUnits="userSpaceOnUse">
<stop stop-color="#C2FFF5"/>
<stop offset="1" stop-color="#00B481"/>
</linearGradient>
<linearGradient id="paint3_linear_42_3" x1="862" y1="167" x2="862" y2="342" gradientUnits="userSpaceOnUse">
<stop stop-color="#C2FFF5"/>
<stop offset="1" stop-color="#00B481"/>
</linearGradient>
<linearGradient id="paint4_linear_42_3" x1="55" y1="90" x2="55" y2="358" gradientUnits="userSpaceOnUse">
<stop stop-color="#C2FFF5"/>
<stop offset="1" stop-color="#00B481"/>
</linearGradient>
<linearGradient id="paint5_linear_42_3" x1="21.8076" y1="68" x2="21.8076" y2="375" gradientUnits="userSpaceOnUse">
<stop stop-color="#C2FFF5"/>
<stop offset="1" stop-color="#00B481"/>
</linearGradient>
<clipPath id="clip0_42_3">
<rect width="960" height="520" fill="white"/>
</clipPath>
</defs>
</svg>
